<svg xmlns="http://www.w3.org/2000/svg" xmlns:xlink="http://www.w3.org/1999/xlink" viewBox="0 0 250 281.25"><defs><style>.a35d07ae-add1-4fee-aaef-4df0c5b2cb50,.aaeacefd-c5f5-46d2-8ed4-de2c378d32b1,.ac2e7eef-ecf1-4779-87fa-ff3c1eb3bb95,.b0f40e79-b264-4024-9a95-8fbbd11ffdb7,.b6c7764a-f250-4aab-83ae-86c3e3a869f3,.b87cd99d-bdb1-4c35-b54f-26254a5d73a5,.b924378d-7dff-4784-a4b0-5c3fb076a616,.eddc68b7-3374-4ca6-8d83-d2db86febbb4,.f9df68d5-1d9c-46ed-8e87-55afc016af1c,.fec39393-9bf7-4a82-b6ad-f1c9b74e6b70{fill-rule:evenodd;}.aaeacefd-c5f5-46d2-8ed4-de2c378d32b1{fill:url(#b4773e3e-a1db-4487-9c53-54a374d4a4b9);}.f9df68d5-1d9c-46ed-8e87-55afc016af1c{fill:url(#f7b6d84d-9a1b-423b-9726-b47df2c954d1);}.eddc68b7-3374-4ca6-8d83-d2db86febbb4{fill:#2263ae;}.b924378d-7dff-4784-a4b0-5c3fb076a616{fill:#3c9ad5;}.b0f40e79-b264-4024-9a95-8fbbd11ffdb7{fill:#fff;}.ec51099e-2bbe-42df-a2f6-311d9668c164{mask:url(#a9679fd5-a6e6-41cc-add3-8ff23caf1c7e);}.ac2e7eef-ecf1-4779-87fa-ff3c1eb3bb95{fill:url(#e937cff1-7d22-41db-b3d8-db05702d0ba0);}.a22a375a-f2d3-4d2f-874c-6c8febc0b38c{mask:url(#ecabdf30-c43e-4751-b5fd-86b657a505d9);}.a35d07ae-add1-4fee-aaef-4df0c5b2cb50{fill:url(#e9af5b31-890e-4949-99c3-7532964bd36d);}.fec39393-9bf7-4a82-b6ad-f1c9b74e6b70{fill:url(#a3fd9c20-198c-47f8-a139-58f2a8988421);}.b87cd99d-bdb1-4c35-b54f-26254a5d73a5{fill-opacity:0.05;}.b6c7764a-f250-4aab-83ae-86c3e3a869f3{fill:url(#b4f78678-8a72-4022-bbb8-42cbf4e7630c);}</style><linearGradient id="b4773e3e-a1db-4487-9c53-54a374d4a4b9" x1="-6477.64" y1="8669.91" x2="-6477.64" y2="6218.46" gradientTransform="matrix(0.02, 0, 0, -0.02, 247.76, 297.12)" gradientUnits="userSpaceOnUse"><stop offset="0" stop-color="#fff" stop-opacity="0"/><stop offset="0.39" stop-color="#fff"/><stop offset="1" stop-color="#fff" stop-opacity="0.83"/></linearGradient><linearGradient id="f7b6d84d-9a1b-423b-9726-b47df2c954d1" x1="-3414.68" y1="9989.34" x2="-3414.68" y2="7441.16" xlink:href="#b4773e3e-a1db-4487-9c53-54a374d4a4b9"/><mask id="a9679fd5-a6e6-41cc-add3-8ff23caf1c7e" x="52.09" y="83.93" width="72.94" height="60.5" maskUnits="userSpaceOnUse"><g id="af75bc33-b252-465d-8e86-f2fbb80f63b1" data-name="id0"><path class="aaeacefd-c5f5-46d2-8ed4-de2c378d32b1" d="M52.09,83.93h73v60.5H52.09Z"/></g></mask><linearGradient id="e937cff1-7d22-41db-b3d8-db05702d0ba0" x1="-6477.66" y1="8669.91" x2="-6477.66" y2="6218.46" gradientTransform="matrix(0.02, 0, 0, -0.02, 247.76, 297.12)" gradientUnits="userSpaceOnUse"><stop offset="0" stop-color="#d1d2d3"/><stop offset="0.39" stop-color="#d1d2d3"/><stop offset="1" stop-color="#d1d2d3"/></linearGradient><mask id="ecabdf30-c43e-4751-b5fd-86b657a505d9" x="124.78" y="51.5" width="78.11" height="62.88" maskUnits="userSpaceOnUse"><g id="e74c5f22-0725-4fb1-9b92-a0ff7c9f112e" data-name="id2"><path class="f9df68d5-1d9c-46ed-8e87-55afc016af1c" d="M124.78,51.5h78.11v62.88H124.78Z"/></g></mask><linearGradient id="e9af5b31-890e-4949-99c3-7532964bd36d" x1="-3414.68" y1="9989.33" x2="-3414.68" y2="7441.16" xlink:href="#e937cff1-7d22-41db-b3d8-db05702d0ba0"/><linearGradient id="a3fd9c20-198c-47f8-a139-58f2a8988421" x1="-7952.02" y1="5125.08" x2="-2064.19" y2="5125.08" gradientTransform="matrix(0.02, 0, 0, -0.02, 247.76, 297.12)" gradientUnits="userSpaceOnUse"><stop offset="0" stop-color="#e7e6e4"/><stop offset="1" stop-color="#fff"/></linearGradient><linearGradient id="b4f78678-8a72-4022-bbb8-42cbf4e7630c" x1="-8222.9" y1="9365.53" x2="-1830.63" y2="9365.53" xlink:href="#a3fd9c20-198c-47f8-a139-58f2a8988421"/></defs><title>skill-css</title><g id="a88db2b0-6d34-4be7-8db8-0547828d21bd" data-name="Layer 1"><g id="f87e090b-d32d-40e2-b89e-c3740ad8cb11" data-name=" 513085304"><path class="eddc68b7-3374-4ca6-8d83-d2db86febbb4" d="M226.56,253.9,125,281.25,23.44,253.9,0,0H250Z"/><path class="b924378d-7dff-4784-a4b0-5c3fb076a616" d="M125,20.57V259.44l.23.06,82.19-22.13,19-216.8Z"/><path class="b0f40e79-b264-4024-9a95-8fbbd11ffdb7" d="M124.91,84.05,52.22,114.33l2.41,30,70.28-30.05,74.76-32,3.1-30.67Z"/><g class="ec51099e-2bbe-42df-a2f6-311d9668c164"><path class="ac2e7eef-ecf1-4779-87fa-ff3c1eb3bb95" d="M52.22,114.33l2.41,30,70.28-30.05V84.05Z"/></g><g class="a22a375a-f2d3-4d2f-874c-6c8febc0b38c"><path class="a35d07ae-add1-4fee-aaef-4df0c5b2cb50" d="M202.77,51.63,124.91,84.05v30.2l74.76-32Z"/></g><path class="fec39393-9bf7-4a82-b6ad-f1c9b74e6b70" d="M52.33,114.33l2.41,30,107.84.34-2.42,40-35.48,10L90.57,186l-2.07-24.8H56.81l4.13,47.89L125,228l63.74-18.6L197,114.33Z"/><path class="b87cd99d-bdb1-4c35-b54f-26254a5d73a5" d="M124.91,114.33H52.22l2.41,30,70.28.22Zm0,80.17-.35.1L90.46,186l-2.07-24.8H56.7l4.13,47.89L124.91,228Z"/><path class="b6c7764a-f250-4aab-83ae-86c3e3a869f3" d="M45.67,51.63h157.1l-3.1,30.66H49.46Z"/><path class="b87cd99d-bdb1-4c35-b54f-26254a5d73a5" d="M124.91,51.63H45.67l3.79,30.66h75.45Z"/></g></g></svg>