<svg xmlns="http://www.w3.org/2000/svg" viewBox="0 0 247.03 234.51"><defs><style>.fc83c695-e6dc-4441-bb6a-859ae3b01ea3{fill:#7152a1;fill-rule:evenodd;}</style></defs><title>skill-redux</title><g id="a4a40940-96ca-48c0-9874-c62a1b88198a" data-name="Layer 4"><path class="fc83c695-e6dc-4441-bb6a-859ae3b01ea3" d="M171.16,163.78a17.66,17.66,0,0,0-1.88-35.21h-.63a17.6,17.6,0,0,0-17,18.24,18.09,18.09,0,0,0,5,11.63c-10.69,21.06-27,36.46-51.55,49.35-16.66,8.8-33.95,12-51.24,9.75-14.15-1.89-25.15-8.18-32.06-18.55-10.06-15.4-11-32.07-2.52-48.73a74,74,0,0,1,21.38-25.15c-1.26-4.08-3.15-11-4.09-16-45.58,33-40.86,77.65-27,98.71C20,223.51,41,233.26,64.28,233.26a77.3,77.3,0,0,0,18.86-2.2c40.24-7.86,70.73-31.76,88-67.28Zm55.33-39c-23.89-28-59.1-43.38-99.34-43.38h-5A17.27,17.27,0,0,0,106.72,72h-.63a17.61,17.61,0,0,0,.63,35.21h.63a17.72,17.72,0,0,0,15.4-10.69h5.66a119.82,119.82,0,0,1,67,20.43c15.71,10.38,27,23.89,33.32,40.24,5.34,13.2,5,26.09-.63,37.09-8.8,16.67-23.58,25.78-43.07,25.78a80.34,80.34,0,0,1-30.8-6.6c-3.46,3.14-9.75,8.17-14.15,11.32,13.52,6.28,27.35,9.74,40.55,9.74,30.18,0,52.5-16.66,61-33.32,9.11-18.23,8.48-49.67-15.09-76.39ZM66.8,169.12a17.65,17.65,0,0,0,17.6,17H85a17.61,17.61,0,0,0-.63-35.21h-.63a5.26,5.26,0,0,0-2.2.32c-12.89-21.38-18.23-44.64-16.34-69.79,1.25-18.86,7.54-35.21,18.54-48.73,9.12-11.63,26.72-17.29,38.67-17.6,33.32-.63,47.46,40.86,48.41,57.53,4.08.94,11,3.14,15.72,4.71C182.79,26.41,151.36,0,121.18,0,92.89,0,66.8,20.43,56.42,50.61,42,90.85,51.4,129.52,69,160a14.11,14.11,0,0,0-2.2,9.12h0Z"/></g></svg>