<svg xmlns="http://www.w3.org/2000/svg" viewBox="0 0 246.66 184.9"><defs><style>.bb808ff2-8d1e-4405-889a-6a114a0ff78c{fill:#ce6499;fill-rule:evenodd;}</style></defs><title>skill-sass</title><g id="a8e5b54d-99b5-4bd4-ac21-a79f81497b1a" data-name="Layer 8"><path class="bb808ff2-8d1e-4405-889a-6a114a0ff78c" d="M212.34,106.17a50.88,50.88,0,0,0-22.36,5.2c-2.31-4.58-4.62-8.57-5-11.56-.44-3.48-1-5.58-.44-9.74s2.93-10,2.93-10.5S186.93,77,182,77s-9.25,1-9.74,2.27a56,56,0,0,0-2.06,7.37c-.87,4.53-9.92,20.57-15.08,29-1.69-3.27-3.13-6.16-3.41-8.47-.44-3.47-1-5.58-.44-9.73s2.93-10,2.93-10.5-.52-2.55-5.5-2.61-9.26,1-9.74,2.27-1,4.37-2.07,7.36-13,29.77-16.17,36.76c-1.59,3.57-3,6.4-4,8.33s0,.14-.14.34c-.86,1.65-1.34,2.55-1.34,2.55v0c-.69,1.2-1.41,2.37-1.73,2.37s-.72-3.23.1-7.67c1.79-9.29,6.12-23.81,6.06-24.33,0-.24.82-2.79-2.79-4.09s-4.78.86-5.06.86-.52.76-.52.76,3.9-16.34-7.47-16.34c-7.12,0-17,7.75-21.82,14.84l-16.58,9c-2.65,1.45-5.4,3-8,4.38l-.52-.59c-13.79-14.63-39.28-25-38.22-44.78.38-7.19,2.89-26.11,49-49,37.72-18.79,67.93-13.63,73.19-2.17C148.27,41.57,124.66,72,85.44,76.4c-14.94,1.69-22.79-4.09-24.77-6.26s-2.37-2.37-3.14-1.93c-1.24.68-.48,2.69,0,3.9,1.17,3,6,8.43,14.18,11.12,7.18,2.36,24.71,3.65,45.9-4.54,23.75-9.19,42.3-34.75,36.86-56.09C148.93.91,112.9-6.24,78.83,5.86c-20.27,7.23-42.25,18.51-58,33.3C2,56.69-1,72,.25,78.37c4.37,22.7,35.65,37.47,48.17,48.41-.62.35-1.2.69-1.72,1-6.27,3.09-30.11,15.56-36.1,28.76-6.74,14.94,1.07,25.7,6.27,27.14,16.1,4.48,32.58-3.57,41.49-16.82s7.81-30.45,3.71-38.3l-.14-.28,4.92-2.89c3.17-1.89,6.3-3.61,9.05-5.1a60.15,60.15,0,0,0-3.23,16.38c-.68,8.47,2.79,19.47,7.37,23.81A8.13,8.13,0,0,0,86,162.37c5.3,0,7.71-4.37,10.36-9.63,3.27-6.4,6.16-13.83,6.16-13.83S98.87,159,108.74,159c3.62,0,7.23-4.67,8.87-7.08v0s.1-.14.29-.48.4-.61.58-.93v-.1c1.44-2.51,4.67-8.23,9.49-17.72,6.22-12.25,12.19-27.56,12.19-27.56a87.43,87.43,0,0,0,2.37,9.91c1.06,3.66,3.37,7.67,5.15,11.56-1.44,2-2.3,3.18-2.3,3.18l0,0c-1.17,1.54-2.45,3.17-3.82,4.81-4.92,5.89-10.8,12.57-11.56,14.5-.92,2.26-.72,4,1.06,5.3,1.31,1,3.62,1.16,6.07,1a27.21,27.21,0,0,0,9.05-2.07,31.35,31.35,0,0,0,7.81-4.09,17.42,17.42,0,0,0,7.46-15.38,30.47,30.47,0,0,0-2.85-10.84c.45-.62.87-1.24,1.31-1.93a203.06,203.06,0,0,0,13.49-23.36,87.81,87.81,0,0,0,2.37,9.92,71.94,71.94,0,0,0,4.37,9.91c-7.12,5.82-11.6,12.57-13.15,17-2.85,8.19-.62,11.91,3.58,12.77,1.88.38,4.57-.48,6.6-1.34a29.61,29.61,0,0,0,8.33-4.3c4.82-3.57,9.44-8.53,9.2-15.22a29.24,29.24,0,0,0-2.07-9c6.06-2.51,13.93-3.95,23.89-2.75,21.43,2.51,25.67,15.9,24.87,21.48s-5.3,8.67-6.79,9.63-2,1.25-1.83,1.93c.21,1,.87,1,2.17.76,1.79-.28,11.28-4.57,11.67-14.89.58-13.17-12-27.62-34.31-27.48ZM47,161.91c-7.09,7.75-17.07,10.7-21.3,8.19-4.58-2.65-2.79-14.07,5.92-22.3a112.69,112.69,0,0,1,16.72-12.48c1-.63,2.55-1.55,4.38-2.65a2.56,2.56,0,0,1,.48-.28l1.1-.69c3.23,11.77.16,22.06-7.3,30.21ZM98.79,126.7c-2.45,6-7.67,21.5-10.8,20.62-2.69-.72-4.34-12.43-.53-24,1.93-5.82,6-12.76,8.43-15.45,3.9-4.34,8.15-5.79,9.2-4,1.26,2.29-4.76,19.05-6.3,22.82Zm42.73,20.42c-1.06.52-2,.92-2.45.62s.44-.92.44-.92,5.34-5.74,7.47-8.39c1.21-1.55,2.65-3.33,4.2-5.34v.58c0,7-6.67,11.58-9.66,13.45Zm33-7.51c-.76-.58-.68-2.37,1.93-8a29.6,29.6,0,0,1,7.33-9.43,12.15,12.15,0,0,1,.72,4.13c-.06,8.67-6.22,11.91-10,13.25Z"/></g></svg>