<svg id="b0331c4f-76e1-4652-9cae-3116dacc6699" data-name="Layer 13" xmlns="http://www.w3.org/2000/svg" viewBox="0 0 179.95 175.88"><defs><style>.a87aacba-e5c7-4070-88f2-eb6166a49500{fill:#a33639;}.ea0d0c13-d659-49b5-b26a-d9038d7653b5{fill:#fff;}</style></defs><title>Artboard 13</title><path id="b35cb2da-a645-4fbb-b13a-b769a88f8cde" data-name="path22" class="a87aacba-e5c7-4070-88f2-eb6166a49500" d="M94.07,0H106.3V17.83c19.76-2.51,40.41-2.33,59.37,4.38,7.14,2.43,14.91,8,14.21,16.5q.13,47.16,0,94.34c.72,8.61-7.26,14.13-14.47,16.55-19,6.3-39.41,7.05-59.11,4.25v22H93.56C62.42,170.19,31.19,165,0,159.52V16.4C31.35,10.92,62.74,5.58,94.07,0Z"/><path id="b79bd41b-dc52-4445-b5c8-7422bf169b9e" data-name="path50" class="ea0d0c13-d659-49b5-b26a-d9038d7653b5" d="M106.3,24.05c18.27-2.52,37.28-2.43,55,3,4.88,1.82,11.43,4,12.53,9.83-.82,4.77-5.79,6.92-9.71,8.63-18.55,6.26-38.61,6.85-57.86,4Z"/><path id="bc4f7902-ce35-4888-996f-bfbca6a15356" data-name="path66" class="ea0d0c13-d659-49b5-b26a-d9038d7653b5" d="M148.19,55.87c9-1.33,18.38-3.27,25.66-9.12-.45,8.79.7,17.69-.61,26.4-3.66,4.36-9.47,5.91-14.71,7.41-17.07,4-34.88,4.13-52.23,1.9V56A164.06,164.06,0,0,0,148.19,55.87Z"/><path id="bce43b4d-04c3-442f-9559-d0387deea379" data-name="path78" class="ea0d0c13-d659-49b5-b26a-d9038d7653b5" d="M41.74,53.77c4.77-.35,9.51-.68,14.3-1.05,6.85,22.91,13.35,45.93,20.12,68.86-4.73-.31-9.45-.65-14.13-1.08-1.25-5.12-2.58-10.23-3.93-15.32-6.28,0-12.56-.23-18.81-.53q-1.82,7.26-3.69,14.5-6-.47-12-.86C29.59,96.75,35.81,75.3,41.74,53.77Z"/><path id="a6fd0585-5261-49ab-a62a-e962347feb1c" data-name="path98" class="a87aacba-e5c7-4070-88f2-eb6166a49500" d="M41.84,93.6C43.91,84,47,74.69,48.35,65c1.84,9.7,4.68,19.14,7,28.71Q48.58,93.65,41.84,93.6Z"/><path id="efb30945-d952-4fda-bb94-1eba29a6d991" data-name="path110" class="ea0d0c13-d659-49b5-b26a-d9038d7653b5" d="M148.31,88.57c9-1.33,18.3-3.27,25.54-9.1-.41,8.77.64,17.63-.57,26.34-3.58,4.38-9.39,5.93-14.6,7.43-17.12,4.07-35,4.17-52.38,2V88.67A163.19,163.19,0,0,0,148.31,88.57Z"/><path id="b5c15ac5-bc8b-4fcd-a79a-12e3d5f84ed1" data-name="path118" class="ea0d0c13-d659-49b5-b26a-d9038d7653b5" d="M148.23,121.29c9-1.31,18.34-3.27,25.62-9.1-.43,8.78.68,17.67-.61,26.38-5.79,6.3-15,7.47-22.93,9.08a150.46,150.46,0,0,1-44.09.17c.14-8.82.08-17.61.08-26.42A163,163,0,0,0,148.23,121.29Z"/></svg>