<svg id="e16a12f5-004b-43c2-8e2a-fad28277a0d6" data-name="Layer 10" xmlns="http://www.w3.org/2000/svg" viewBox="0 0 232.74 116.27"><defs><style>.b63d1672-8466-4d42-a6d8-507b5484b7bd{fill:#2d2a64;}.bf556b28-c64c-4993-b73d-30b717e2eb59{fill:#cd2037;}.a2ece4a3-551a-4831-bb80-de34046a88e2{fill:#f69925;}.bb734106-d18c-4d9a-8a50-998602bd1413{fill:#e1632c;}.b3668b1b-4671-4800-b1b9-fe493b0ad31d{fill:#b8204e;}.b7f73ed6-8b71-4cd8-b290-5c15f24b1cdf{fill:#da4c32;}.e76eef9f-0dcb-4422-948d-f2af3657af31{fill:#882777;}.a5078ee5-15c5-4f00-8447-649eda02ffbc{fill:#ea7726;}.b982c8a4-0f30-4988-b754-0feb4acbf70c{fill:#c81f3d;}.b61922fe-cbf1-47b4-bc4d-575ae87946f3{fill:#ad2257;}.b0279469-278a-4d26-aa36-f40dd9b858ed{fill:#c21f43;}.ada2599b-7ca1-49d2-85b6-4ecd189bb969{fill:#bd2249;}.aebd016d-8a60-435a-a22e-1aa662c683af{fill:#7f2d80;}.e26c6b0b-d4cb-4c09-9269-b978d01fa3d3{fill:#a7235d;}.abe63ce3-fee2-44d8-994d-c71f8e1ac3e5{fill:#fff;}</style></defs><title>skill-apache</title><path class="b63d1672-8466-4d42-a6d8-507b5484b7bd" d="M23.5,109l-3.33,1c-1.28.41-2.54.84-3.83,1.19-.55.15-1.09.36-1.64.53-2.15.68-4.29,1.38-6.45,2-1.85.55-3.7,1.12-5.54,1.68-.57.17-1.13.36-1.71.5-.18,0-.47,0-.53.3a.4.4,0,0,0-.11,0c-.29.06-.4-.06-.35-.35.27,0,.28-.3.35-.47a4.94,4.94,0,0,1,2.05-2.26A6.41,6.41,0,0,1,4,112.5c.61-.18,1.22-.32,1.82-.52,1.81-.58,3.63-1.1,5.43-1.67l3.45-1.09c1.66-.52,3.31-1.08,5-1.55.72-.21,1.41-.48,2.12-.71a1.18,1.18,0,0,1,.55-.14c.16,0,.33,0,.39.24a6.74,6.74,0,0,0,.38.87A2.65,2.65,0,0,1,23.5,109Z"/><path class="bf556b28-c64c-4993-b73d-30b717e2eb59" d="M126.08,41.45a5.84,5.84,0,0,1,.59-1.41,30.87,30.87,0,0,1,2.1-3.61,28.86,28.86,0,0,1,4-4.64,30.29,30.29,0,0,1,2.91-2.39,36.69,36.69,0,0,1,3.75-2.4l2.12-1.15a4.14,4.14,0,0,1-.58,1,27.7,27.7,0,0,0-2.12,4.17,20.34,20.34,0,0,0-1.4,4.84,3.62,3.62,0,0,0,0,.57c-.11,0-.1.08-.08.15s0,0,0,0,.08-.12,0-.19a4.84,4.84,0,0,0,.81-1.54,33.57,33.57,0,0,1,3-4.81,23.89,23.89,0,0,1,3.68-3.84A25.87,25.87,0,0,1,148.19,24a39.22,39.22,0,0,1,4-2.08c1.78-.83,3.58-1.62,5.42-2.31,1.1-.41,2.2-.79,3.32-1.13a15.68,15.68,0,0,1,3-.68,15.79,15.79,0,0,0-1.4,2.48,35.13,35.13,0,0,0-1.57,4.3c-.44,1.51-.75,3-1,4.59a6.37,6.37,0,0,1-.06,1c-.25,1.1-.16,2.23-.32,3.35-.11.77-.17,1.55-.29,2.32a25.88,25.88,0,0,0-.41,3.62c0,.51-.09,1-.15,1.53-.1.78-.21,1.55-.3,2.32s-.15,1.55-.26,2.33a12.25,12.25,0,0,0-.2,2.1c0,.59-.15,1.17-.18,1.75s-.3,1.12,0,1.69a21.59,21.59,0,0,1-2.14,1.1c-.81.42-1.65.8-2.48,1.19l-4.14,2-2.27,1.08-4.21,1.94c-1.09.5-2.18,1-3.28,1.5-1.31.58-2.59,1.23-3.93,1.73,0-.37-.33-.6-.45-.92-.24-.65-.53-1.27-.83-1.89-.5-1-1-2.08-1.45-3.12s-.83-1.85-1.29-2.75-.8-1.69-1.19-2.54-.69-1.53-1.06-2.28-.71-1.6-1.12-2.38-.91-1.88-1.32-2.85C126.39,42.41,126,42,126.08,41.45Z"/><path class="a2ece4a3-551a-4831-bb80-de34046a88e2" d="M204.94.78a6.48,6.48,0,0,1,1.62-.33c1.34-.13,2.67-.34,4-.4a35.41,35.41,0,0,1,6.09.19,26.46,26.46,0,0,1,5.21,1.13,16.24,16.24,0,0,1,4.58,2.33,24.06,24.06,0,0,1,2.82,2.41A14,14,0,0,1,232,9.92a8,8,0,0,1,.48,5.44,6.93,6.93,0,0,1-.91,2,37,37,0,0,1-4.43,5.4c-1.49,1.59-3.07,3.1-4.68,4.57-2,1.87-4.12,3.7-6.27,5.45-.56.45-1.08,1-1.69,1.36,0-.13-.09-.18-.21-.24-1.21-.62-2.42-1.26-3.63-1.9-.94-.5-1.86-1.05-2.82-1.51-1.23-.58-2.4-1.29-3.63-1.88-.73-.36-1.43-.79-2.16-1.15.74-.64,1.57-1.14,2.35-1.72,1.53-1.14,3.08-2.26,4.6-3.41,1.15-.88,2.28-1.78,3.41-2.68s2-1.67,3-2.51a.75.75,0,0,0,.09-.15.52.52,0,0,0,.39-.38c-.18.09-.39.14-.38.39-.38,0-.57.3-.81.48-1.33,1-2.66,2-4,3-1.13.8-2.26,1.63-3.4,2.41s-2.29,1.58-3.46,2.33c-.58.37-1.14.76-1.71,1.14a.73.73,0,0,1-.4.2,2.24,2.24,0,0,1,0-.45,21.37,21.37,0,0,0,.19-2.39c0-.61.12-1.22.16-1.83a11.93,11.93,0,0,1,.1-1.19,11,11,0,0,0,.22-2.21,2.69,2.69,0,0,1,.06-.63c.11-.67.19-1.35.28-2s.12-1.45.26-2.15c.2-1.07.29-2.15.42-3.23s.28-1.88.43-2.82c.12-.78.31-1.57.37-2.36s.22-1.51.32-2.26A21.15,21.15,0,0,0,204.94.78Zm11.51,15.43c-.12.07-.31.09-.29.33.13-.09.27-.16.28-.34,0,0,.13,0,.05-.07Z"/><path class="bf556b28-c64c-4993-b73d-30b717e2eb59" d="M136,63.61a23.17,23.17,0,0,1,2.51-1.21c1.1-.54,2.23-1,3.33-1.53q2.16-1,4.31-2c1.1-.52,2.2-1.07,3.3-1.6s2.11-1,3.15-1.49,2.15-1.08,3.22-1.62l3.64-1.81c.06.29.3.44.48.63a10.61,10.61,0,0,0,2.26,1.42c.64.36,1.33.65,2,1,1.48.78,3,1.51,4.46,2.31a13.93,13.93,0,0,1,1.73.86,17.1,17.1,0,0,0,2.12,1.11c.92.47,1.82,1,2.78,1.39.19.08.34.18.35.41a13.42,13.42,0,0,1-1.93,1.23c-1.18.74-2.37,1.47-3.57,2.17s-2.61,1.51-3.91,2.27l-3.53,2c-.83.48-1.66.94-2.5,1.4l-2.86,1.56-2.82,1.52-3.09,1.64c-.95.49-1.92.94-2.86,1.44-1.57.83-3.16,1.61-4.77,2.38-.13.07-.24.2-.4.19-.53-1.31-1.15-2.58-1.76-3.86-.41-.84-.78-1.7-1.17-2.55s-.72-1.51-1.07-2.28-.72-1.56-1.11-2.33A44.39,44.39,0,0,0,136,63.61Z"/><path class="bb734106-d18c-4d9a-8a50-998602bd1413" d="M196.53,29.91a24.43,24.43,0,0,1-2.12,1.34c-1.1.69-2.22,1.34-3.33,2s-2.43,1.44-3.69,2.09c-.31.16-.58.4-.89.58-.85.49-1.7,1-2.56,1.46-1.21.69-2.43,1.37-3.65,2a15.7,15.7,0,0,1-1.47.76,2,2,0,0,0-.18-.83c-.66-1.41-1.28-2.83-2-4.2-.38-.71-.68-1.45-1-2.17-.62-1.34-1.25-2.67-1.87-4-.29-.6-.58-1.2-.84-1.81-.42-1-.95-2-1.39-3s-.83-1.84-1.28-2.75c-.58-1.18-1.06-2.41-1.69-3.56a8.85,8.85,0,0,1,1.73-1.31c1.22-.84,2.48-1.63,3.74-2.42s2.27-1.4,3.44-2c.83-.47,1.64-1,2.47-1.43,1.56-.88,3.14-1.73,4.75-2.52l1.23-.62a.63.63,0,0,1,.37-.12c0,.1,0,.21.05.28A5.86,5.86,0,0,1,187,9.18c.19.54.57,1,.76,1.54A17.5,17.5,0,0,0,189,13.47c.38.72.68,1.49,1,2.23.75,1.65,1.56,3.27,2.3,4.93s1.5,3.1,2.2,4.67c.29.65.62,1.27.91,1.92a7.77,7.77,0,0,0,.61,1.35A2.62,2.62,0,0,1,196.53,29.91Z"/><path class="b3668b1b-4671-4800-b1b9-fe493b0ad31d" d="M112.73,71.24a6.57,6.57,0,0,1-1.35.61c-1,.42-1.94.79-2.92,1.18-1.63.65-3.28,1.27-4.89,2-.92.38-1.85.74-2.77,1.11s-1.57.6-2.35.89a1.1,1.1,0,0,0-.18-.76,17.15,17.15,0,0,1-1.17-2.35c-.47-.84-.82-1.75-1.23-2.63-.53-1.16-1-2.34-1.63-3.45-.15-.28-.13-.61-.31-.86a14.83,14.83,0,0,1-1.2-2.47c-.49-1.06-1-2.12-1.5-3.2-.36-.79-.74-1.57-1.11-2.36-.47-1-.9-2-1.38-2.94a3.7,3.7,0,0,1-.32-.86,25.46,25.46,0,0,1,2.1-2.18c.92-.9,1.88-1.73,2.87-2.54,1.21-1,2.44-2,3.72-2.85,1-.69,2-1.34,3-2a.86.86,0,0,1,.4-.21,1.89,1.89,0,0,0,.21.53c.25.63.64,1.18.88,1.8s.53,1.18.8,1.77c.69,1.55,1.42,3.09,2.14,4.63.86,1.86,1.72,3.71,2.6,5.56.56,1.17,1.11,2.35,1.65,3.53.82,1.79,1.7,3.56,2.49,5.36a20.37,20.37,0,0,1,1,2.23A.81.81,0,0,0,112.73,71.24Z"/><path class="b7f73ed6-8b71-4cd8-b290-5c15f24b1cdf" d="M168.55,17.91c.63,1.15,1.11,2.38,1.69,3.56.45.91.88,1.82,1.28,2.75s1,2,1.39,3c.26.61.55,1.21.84,1.81.62,1.34,1.25,2.67,1.87,4,.34.72.64,1.46,1,2.17.72,1.37,1.34,2.79,2,4.2a2,2,0,0,1,.18.83.68.68,0,0,1-.35.22c0-.15,0-.34-.23-.32s-.11.21-.13.32v.17c-.65.47-1.41.76-2.09,1.18-1.07.66-2.24,1.12-3.33,1.76-.79.46-1.61.88-2.43,1.3s-1.45.79-2.19,1.12c-1.32.6-2.57,1.33-3.86,2l-4,2a22.3,22.3,0,0,1-2.47,1.17c-.26-.57,0-1.13,0-1.69s.19-1.16.18-1.75a12.25,12.25,0,0,1,.2-2.1c.11-.78.17-1.55.26-2.33s.2-1.54.3-2.32c.06-.5.14-1,.15-1.53a25.88,25.88,0,0,1,.41-3.62c.12-.77.18-1.55.29-2.32.16-1.12.07-2.25.32-3.35a6.37,6.37,0,0,0,.06-1,2.62,2.62,0,0,0,.23-.32,32.36,32.36,0,0,1,4-6.73,18.29,18.29,0,0,1,3.58-3.56c.43.15.43.15.45-.35A.54.54,0,0,1,168.55,17.91Zm2,5.94s0,.07,0,.09.06,0,.09,0,0-.07,0-.1S170.63,23.86,170.6,23.85Z"/><path class="bb734106-d18c-4d9a-8a50-998602bd1413" d="M204.24,42.1a14.23,14.23,0,0,1-1.84,1.44c-1.54,1.13-3.1,2.23-4.64,3.36-.56.4-1.17.74-1.74,1.13a1.89,1.89,0,0,0-.2.2c-.11,0-.19,0-.2.15l-.71.42-.1.05a0,0,0,0,1,0,.06.18.18,0,0,0-.21.18c-1.54,1.12-3.13,2.16-4.7,3.23-1.38.94-2.78,1.85-4.17,2.78a9.53,9.53,0,0,1-1.49.93,1.46,1.46,0,0,0-.13-.61c-.59-1.45-1.31-2.84-2-4.26a17.87,17.87,0,0,0-1.24-2.57,2,2,0,0,1-.26-.58,5.54,5.54,0,0,0-.58-1.23c-.45-.76-.7-1.61-1.1-2.39a6.49,6.49,0,0,0-1.09-1.85l2-1.15,3.42-2c1.34-.79,2.69-1.58,4-2.39s2.63-1.63,3.94-2.45c.95-.6,1.91-1.19,2.86-1.8l3.74-2.44a1.83,1.83,0,0,1,.55-.3.41.41,0,0,1,.44.28c.28.58.59,1.16.87,1.75.89,1.92,1.75,3.86,2.67,5.77.57,1.19,1,2.43,1.71,3.57A1.26,1.26,0,0,1,204.24,42.1Z"/><path class="e76eef9f-0dcb-4422-948d-f2af3657af31" d="M75.09,85.82l-4,1.46c-.84.31-1.72.57-2.54,1a1.42,1.42,0,0,1-.22,0l-.11,0-.14.07c-.42,0-.49-.31-.61-.57l-2-4.32c-.5-1.08-1-2.14-1.5-3.22-.93-2-1.9-4-2.86-6.08-.09-.21-.18-.42-.28-.63-.39-.84-.79-1.69-1.18-2.54a.36.36,0,0,0-.4-.25A21.35,21.35,0,0,1,63.68,65a24.32,24.32,0,0,1,5-3.45.75.75,0,0,1,.54-.15l0,0A16.35,16.35,0,0,1,68,62.74a10.31,10.31,0,0,0-2.08,4A18.58,18.58,0,0,0,65.45,72a1.55,1.55,0,0,0,0,.21c.15,0,.19-.08.22-.16.45-1.09,1-2.11,1.56-3.16.44-.87.94-1.71,1.44-2.54a33,33,0,0,1,2.05-3,29.4,29.4,0,0,1,2.31-2.68,31.28,31.28,0,0,1,3.35-2.95,35.75,35.75,0,0,1,3.42-2.29c1.16-.69,2.36-1.34,3.54-2a1.21,1.21,0,0,1,.69-.23h0a34.13,34.13,0,0,0-4.15,5,27.51,27.51,0,0,0-2,3.52,23.42,23.42,0,0,0-1.82,5.07,27.63,27.63,0,0,0-.54,9.76c.11.82.2,1.63.37,2.44a8.9,8.9,0,0,0-.32,2.23c-.07.8-.21,1.58-.28,2.37A14.39,14.39,0,0,0,75.09,85.82Z"/><path class="a5078ee5-15c5-4f00-8447-649eda02ffbc" d="M196.53,29.91a2.62,2.62,0,0,0-.45-1.34,7.77,7.77,0,0,1-.61-1.35c-.29-.65-.62-1.27-.91-1.92-.7-1.57-1.5-3.1-2.2-4.67s-1.55-3.28-2.3-4.93c-.34-.74-.64-1.51-1-2.23a17.5,17.5,0,0,1-1.26-2.75c-.19-.55-.57-1-.76-1.54a5.86,5.86,0,0,0-.69-1.45c-.05-.07,0-.18-.05-.28A7.58,7.58,0,0,1,188,6.58C189.1,6,190.27,5.51,191.44,5c1.66-.72,3.34-1.4,5-2,1.14-.4,2.28-.78,3.43-1.11,1.47-.42,3-.74,4.46-1.06a3.56,3.56,0,0,1,.57,0A21.15,21.15,0,0,1,204.55,3c-.1.75-.26,1.5-.32,2.26s-.25,1.58-.37,2.36c-.15.94-.31,1.88-.43,2.82s-.22,2.16-.42,3.23c-.14.7-.17,1.43-.26,2.15s-.17,1.36-.28,2a2.69,2.69,0,0,0-.06.63,11,11,0,0,1-.22,2.21,11.93,11.93,0,0,0-.1,1.19c0,.61-.12,1.22-.16,1.83a21.37,21.37,0,0,1-.19,2.39,2.24,2.24,0,0,0,0,.45A11.48,11.48,0,0,1,200,27.77c-1.1.73-2.22,1.41-3.34,2.11A.35.35,0,0,1,196.53,29.91Z"/><path class="e76eef9f-0dcb-4422-948d-f2af3657af31" d="M94.07,96.45a5.06,5.06,0,0,1-1.27.33c-1.49.28-3,.58-4.47.78s-3,.47-4.49.65c-2.21.25-4.42.46-6.63.68a.44.44,0,0,0-.32.14c3.46,2.61,5.92,6.06,8.26,9.8a11.55,11.55,0,0,1-1.41-.89c-2-1.31-4-2.6-6.15-3.76-1.32-.72-2.66-1.42-4-2a40.1,40.1,0,0,0-6.11-2.2,23.63,23.63,0,0,0-4.18-.75.55.55,0,0,1-.33-.09l-.17.07a.46.46,0,0,1-.09.27.44.44,0,0,1-.53-.33c-.28-.92-.89-1.69-1.15-2.62a1.45,1.45,0,0,0-.24-.46,3,3,0,0,1-.5-1.08.9.9,0,0,0-.82-.75q3-1.12,6.09-2.2c1.5-.52,3-1.11,4.46-1.66s2.78-1,4.15-1.5c.93-.36,1.86-.72,2.8-1a13.31,13.31,0,0,1,2,.9c.51.21,1,.54,1.46.77,1,.47,2,1,3,1.47l2,1c1.27.67,2.6,1.25,3.86,1.93C90.77,94.79,92.46,95.54,94.07,96.45Z"/><path class="b3668b1b-4671-4800-b1b9-fe493b0ad31d" d="M120.68,88.88a12.92,12.92,0,0,1-2.23.88c-1.13.42-2.27.79-3.41,1.16s-2.46.83-3.71,1.17c-.59.16-1.16.36-1.75.52-1.56.44-3.1,1-4.68,1.29a1.22,1.22,0,0,0-.16-.6c-.44-.87-.84-1.75-1.25-2.63-.77-1.64-1.52-3.29-2.29-4.94S99.68,82.56,99,81a3.07,3.07,0,0,1-.5-1.44,7.54,7.54,0,0,1,1.4-.59c.48-.16.94-.39,1.41-.57,2.11-.83,4.21-1.69,6.3-2.55,1.2-.49,2.4-1,3.59-1.5.83-.35,1.66-.68,2.49-1a1.33,1.33,0,0,0,.06.45c.29.66.58,1.34.93,2a15.11,15.11,0,0,1,1,2.16c.31.81.78,1.52,1.09,2.33s.65,1.41,1,2.11c.72,1.44,1.36,2.91,2,4.36.27.59.54,1.18.83,1.77A1.34,1.34,0,0,1,120.68,88.88Z"/><path class="b982c8a4-0f30-4988-b754-0feb4acbf70c" d="M126.08,41.45c-.07.55.31,1,.51,1.42.41,1,.84,1.93,1.32,2.85s.73,1.6,1.12,2.38.71,1.52,1.06,2.28.76,1.71,1.19,2.54.86,1.83,1.29,2.75,1,2.08,1.45,3.12c.3.62.59,1.24.83,1.89.12.32.42.55.45.92a7,7,0,0,1-1.49.71L130.1,64c-.72.31-1.44.6-2.16.9a16.64,16.64,0,0,0-1-2.19c-.61-1.32-1.25-2.63-1.86-3.94-.71-1.5-1.42-3-2.11-4.52-.32-.7-.69-1.37-1-2.08-.69-1.69-1.53-3.33-2.3-5-.53-1.13-1-2.28-1.6-3.41-.76-1.5-1.41-3-2.13-4.57a3.14,3.14,0,0,1-.49-1.39,4.19,4.19,0,0,1,1.26-.56c1.34-.53,2.69-1.06,4.05-1.57l2.69-1c1.07-.4,2.16-.77,3.25-1.11a14,14,0,0,1,1.73-.54,6.53,6.53,0,0,1-.64,1.47,31.53,31.53,0,0,0-1.41,4.42c-.17.77-.25,1.54-.42,2.31A.2.2,0,0,0,126.08,41.45Z"/><path class="b61922fe-cbf1-47b4-bc4d-575ae87946f3" d="M88.42,55.1a3.7,3.7,0,0,0,.32.86c.48,1,.91,2,1.38,2.94.37.79.75,1.57,1.11,2.36.49,1.08,1,2.14,1.5,3.2a14.83,14.83,0,0,0,1.2,2.47c.18.25.16.58.31.86.62,1.11,1.1,2.29,1.63,3.45.41.88.76,1.79,1.23,2.63a17.15,17.15,0,0,0,1.17,2.35,1.1,1.1,0,0,1,.18.76c-.17.19-.41.19-.62.27-.79.29-1.57.6-2.34.91-1.4.57-2.82,1.08-4.22,1.62s-2.63,1-4,1.51a1.2,1.2,0,0,1-.27.08c-.31-.65-.64-1.29-.93-2s-.73-1.43-1.07-2.16c-.86-1.85-1.7-3.71-2.56-5.57-.59-1.28-1.2-2.55-1.79-3.83a2.81,2.81,0,0,0-.57-.9,6.64,6.64,0,0,1,.8-1.57,54.54,54.54,0,0,1,3.26-5.11c.64-.88,1.29-1.75,2-2.6s1.37-1.59,2-2.39A.52.52,0,0,1,88.42,55.1Z"/><path class="b0279469-278a-4d26-aa36-f40dd9b858ed" d="M115.48,37.76a3.14,3.14,0,0,0,.49,1.39c.72,1.52,1.37,3.07,2.13,4.57.56,1.13,1.07,2.28,1.6,3.41.77,1.66,1.61,3.3,2.3,5,.29.71.66,1.38,1,2.08.69,1.51,1.4,3,2.11,4.52.61,1.31,1.25,2.62,1.86,3.94a16.64,16.64,0,0,1,1,2.19l-2.08.94c-.91.39-1.82.79-2.74,1.15s-1.9.89-2.91,1.19c-.5-1-1-2.06-1.5-3.1s-.93-2-1.38-3c-.29-.66-.59-1.32-.92-2-.43-.83-.8-1.69-1.2-2.54-.82-1.7-1.58-3.43-2.36-5.14-.53-1.15-1.07-2.29-1.6-3.43-1-2.06-2-4.11-2.91-6.18a5.24,5.24,0,0,1-.58-1.48.61.61,0,0,1,.42-.24.16.16,0,0,0,.16-.07c.87-.49,1.77-.9,2.67-1.31l2.46-1.1A20.57,20.57,0,0,1,115.48,37.76Z"/><path class="b7f73ed6-8b71-4cd8-b290-5c15f24b1cdf" d="M177.87,42.54A6.49,6.49,0,0,1,179,44.39c.4.78.65,1.63,1.1,2.39a5.54,5.54,0,0,1,.58,1.23,2,2,0,0,0,.26.58,17.87,17.87,0,0,1,1.24,2.57c.64,1.42,1.36,2.81,2,4.26a1.46,1.46,0,0,1,.13.61,12.27,12.27,0,0,1-1.47,1c-.77.52-1.57,1-2.36,1.49s-1.64,1-2.48,1.56c-.37.23-.72.48-1.11.7-.21.12-.44.21-.65.33s-.2,0-.22.17a.37.37,0,0,1-.34.18c0-.23-.16-.33-.35-.41-1-.39-1.86-.92-2.78-1.39a17.1,17.1,0,0,1-2.12-1.11,13.93,13.93,0,0,0-1.73-.86c-1.47-.8-3-1.53-4.46-2.31-.65-.34-1.34-.63-2-1A10.61,10.61,0,0,1,159.91,53c-.18-.19-.42-.34-.48-.63,1.76-.9,3.53-1.79,5.29-2.71q2.21-1.14,4.4-2.33L175.27,44C176.14,43.5,177,43,177.87,42.54Z"/><path class="ada2599b-7ca1-49d2-85b6-4ecd189bb969" d="M107.76,41.29a5.24,5.24,0,0,0,.58,1.48c1,2.07,1.94,4.12,2.91,6.18.53,1.14,1.07,2.28,1.6,3.43.78,1.71,1.54,3.44,2.36,5.14.4.85.77,1.71,1.2,2.54.33.64.63,1.3.92,2,.45,1,.91,2,1.38,3s1,2.07,1.5,3.1a3,3,0,0,1-.93.43q-2.49,1.08-5,2.08a9.27,9.27,0,0,1-1.54.6.81.81,0,0,1-.43-.51,20.37,20.37,0,0,0-1-2.23c-.79-1.8-1.67-3.57-2.49-5.36-.54-1.18-1.09-2.36-1.65-3.53-.88-1.85-1.74-3.7-2.6-5.56-.72-1.54-1.45-3.08-2.14-4.63-.27-.59-.56-1.16-.8-1.77s-.63-1.17-.88-1.8a1.89,1.89,0,0,1-.21-.53,11.19,11.19,0,0,1,1.91-1.21c.71-.4,1.4-.84,2.13-1.2A33.26,33.26,0,0,1,107.76,41.29Z"/><path class="aebd016d-8a60-435a-a22e-1aa662c683af" d="M59.21,70.78a.36.36,0,0,1,.4.25c.39.85.79,1.7,1.18,2.54.1.21.19.42.28.63,1,2,1.93,4,2.86,6.08.49,1.08,1,2.14,1.5,3.22l2,4.32c.12.26.19.62.61.57l-5.77,2.06-4.82,1.66c-1.23.42-2.46.83-3.68,1.27-.27.09-.38.06-.53-.21a11,11,0,0,0-3.07-3.37A34.54,34.54,0,0,0,46,87.13c-.07,0-.13-.08-.13-.18a13.86,13.86,0,0,1,9.33,4.35.61.61,0,0,0,.09-.51,51.58,51.58,0,0,1,.22-7.46c.09-.93.28-1.85.41-2.78.19-1.37.59-2.69.89-4a12.33,12.33,0,0,1,.48-1.41A22.73,22.73,0,0,1,59.21,70.78Z"/><path class="aebd016d-8a60-435a-a22e-1aa662c683af" d="M59.43,94.2a.9.9,0,0,1,.82.75,3,3,0,0,0,.5,1.08,1.45,1.45,0,0,1,.24.46c.26.93.87,1.7,1.15,2.62a.44.44,0,0,0,.53.33,18.9,18.9,0,0,0,1,7.64c.29,1,.59,1.93.9,2.89a25.09,25.09,0,0,1-5.6-8.66c-.13.54-.3,1.09-.38,1.64A8.89,8.89,0,0,1,58,104.7a27.91,27.91,0,0,1-2.79,5.19c-.61.9-1.2,1.81-1.88,2.66a5.4,5.4,0,0,1-.87,1c.13-.32.27-.63.38-.95.4-1.1.82-2.19,1.17-3.3a37.08,37.08,0,0,0,1.17-4.67,18.58,18.58,0,0,0,.23-5.26c-.15-1.25,0-1.1-1.16-.71s-2.42.83-3.63,1.25l-4.27,1.49-3.05,1-1.51.54c-1.13.41-2.28.77-3.43,1.15s-2,.72-3.11,1c-.42.1-.85.3-1.28.44l-5.45,1.78-3.22,1.06c-.59.2-1.2.38-1.8.56a2.65,2.65,0,0,0-.4-1,6.74,6.74,0,0,1-.38-.87c-.06-.23-.23-.21-.39-.24a15.73,15.73,0,0,1,2.28-.78c.85-.28,1.7-.57,2.56-.84,1.55-.49,3.09-1,4.63-1.5L35,102.64l4.4-1.47,3-1c1.59-.54,3.19-1.08,4.77-1.63l3.19-1.13c1.44-.5,2.89-1,4.33-1.5,1-.35,2-.72,3-1.08Z"/><path class="b0279469-278a-4d26-aa36-f40dd9b858ed" d="M136.1,82.66c-1.69.81-3.43,1.53-5.16,2.26a23.14,23.14,0,0,1-2.54,1c0-.13-.07-.26-.12-.38-.6-1.29-1.21-2.56-1.8-3.85-.4-.87-.81-1.73-1.23-2.59-.78-1.58-1.49-3.18-2.23-4.78-.45-1-.92-1.94-1.33-2.93a3.6,3.6,0,0,1-.48-1.28c1.19-.62,2.45-1.09,3.68-1.65.88-.4,1.77-.78,2.66-1.17l1.16-.48c.11.2.25.39.35.59.67,1.42,1.34,2.83,2,4.25.91,2,1.79,3.9,2.7,5.84q1.1,2.34,2.21,4.66A1.09,1.09,0,0,1,136.1,82.66Z"/><path class="b61922fe-cbf1-47b4-bc4d-575ae87946f3" d="M98.45,79.52A3.07,3.07,0,0,0,99,81c.73,1.6,1.51,3.18,2.25,4.77s1.52,3.3,2.29,4.94c.41.88.81,1.76,1.25,2.63a1.22,1.22,0,0,1,.16.6,22.61,22.61,0,0,1-2.31.66c-.87.25-1.77.42-2.66.64-1.37.34-2.74.66-4.13.9l-.09,0a.33.33,0,0,1-.26.07c-.43-.94-.84-1.88-1.29-2.8-.72-1.5-1.41-3-2.09-4.52-.53-1.2-1.19-2.34-1.63-3.58a2.32,2.32,0,0,0-.28-.57,7.24,7.24,0,0,1-.71-1.67,1.2,1.2,0,0,1,.24-.15L93,81.61c1-.4,2.06-.82,3.09-1.2A22.39,22.39,0,0,1,98.45,79.52Z"/><path class="ada2599b-7ca1-49d2-85b6-4ecd189bb969" d="M121.21,70.12a3.6,3.6,0,0,0,.48,1.28c.41,1,.88,2,1.33,2.93.74,1.6,1.45,3.2,2.23,4.78.42.86.83,1.72,1.23,2.59.59,1.29,1.2,2.56,1.8,3.85.05.12.08.25.12.38a12,12,0,0,1-1.84.78c-1,.43-2,.81-3.08,1.21l-2.46.92a2,2,0,0,1-.34,0,1.34,1.34,0,0,0-.1-.44c-.29-.59-.56-1.18-.83-1.77-.67-1.45-1.31-2.92-2-4.36-.34-.7-.71-1.4-1-2.11s-.78-1.52-1.09-2.33a15.11,15.11,0,0,0-1-2.16c-.35-.63-.64-1.31-.93-2a1.33,1.33,0,0,1-.06-.45c.54-.29,1.13-.46,1.69-.7a.54.54,0,0,0,.49-.19c.93-.51,2-.84,2.92-1.28.56-.26,1.15-.49,1.72-.74A2.78,2.78,0,0,1,121.21,70.12Z"/><path class="b982c8a4-0f30-4988-b754-0feb4acbf70c" d="M136.1,82.66a1.09,1.09,0,0,0-.13-.5q-1.11-2.32-2.21-4.66c-.91-1.94-1.79-3.89-2.7-5.84-.66-1.42-1.33-2.83-2-4.25-.1-.2-.24-.39-.35-.59.15-.13.36-.13.54-.21s.24,0,.28-.13a.4.4,0,0,1,.35-.16c.05.05.08,0,.11,0a11.25,11.25,0,0,1,1.85-.89c.85-.42,1.72-.8,2.6-1.16a7.61,7.61,0,0,1,1.53-.64,44.39,44.39,0,0,1,2.27,4.65c.39.77.77,1.55,1.11,2.33s.72,1.52,1.07,2.28.76,1.71,1.17,2.55c.61,1.28,1.23,2.55,1.76,3.86C141,80.47,138.55,81.6,136.1,82.66Z"/><path class="e26c6b0b-d4cb-4c09-9269-b978d01fa3d3" d="M80.13,67a2.81,2.81,0,0,1,.57.9c.59,1.28,1.2,2.55,1.79,3.83.86,1.86,1.7,3.72,2.56,5.57.34.73.75,1.42,1.07,2.16s.62,1.31.93,2a2.53,2.53,0,0,1-1,.38c-1.73.67-3.47,1.3-5.2,2l-3.06,1.14c-.92.34-1.84.65-2.75,1a14.39,14.39,0,0,1,.19-2.27c.07-.79.21-1.57.28-2.37A8.9,8.9,0,0,1,75.88,79s.08-.09.09-.14a20.48,20.48,0,0,1,.89-4,39.88,39.88,0,0,1,1.69-4.62c.46-1,1-2.07,1.46-3.1A.68.68,0,0,1,80.13,67Z"/><path class="a5078ee5-15c5-4f00-8447-649eda02ffbc" d="M204.24,42.1a1.26,1.26,0,0,0-.19-.71c-.67-1.14-1.14-2.38-1.71-3.57-.92-1.91-1.78-3.85-2.67-5.77-.28-.59-.59-1.17-.87-1.75a.41.41,0,0,0-.44-.28,12.86,12.86,0,0,1,1.65-1.2c.56-.43,1.15-.8,1.73-1.19a.51.51,0,0,1,.3-.15c.73.36,1.43.79,2.16,1.15,1.23.59,2.4,1.3,3.63,1.88,1,.46,1.88,1,2.82,1.51,1.21.64,2.42,1.28,3.63,1.9.12.06.2.11.21.24-.93.87-2,1.62-2.94,2.42-1.23,1-2.49,2-3.74,2.9s-2.27,1.72-3.41,2.58A.38.38,0,0,1,204.24,42.1Z"/><path class="e26c6b0b-d4cb-4c09-9269-b978d01fa3d3" d="M89.45,83.05a7.24,7.24,0,0,0,.71,1.67,2.32,2.32,0,0,1,.28.57c.44,1.24,1.1,2.38,1.63,3.58.68,1.51,1.37,3,2.09,4.52.45.92.86,1.86,1.29,2.8a8,8,0,0,1-1.38.26c-1.61-.91-3.3-1.66-4.93-2.54-1.26-.68-2.59-1.26-3.86-1.93l-2-1c-1-.49-2-1-3-1.47-.5-.23-.95-.56-1.46-.77a13.31,13.31,0,0,0-2-.9c1.3-.55,2.63-1,3.95-1.51,1-.35,1.92-.74,2.89-1.11,1.34-.51,2.68-1,4-1.53C88.34,83.45,88.88,83.22,89.45,83.05Z"/><path class="bb734106-d18c-4d9a-8a50-998602bd1413" d="M178.11,40.59v-.17c0-.11-.05-.3.13-.32s.2.17.23.32A.39.39,0,0,1,178.11,40.59Z"/><path class="bb734106-d18c-4d9a-8a50-998602bd1413" d="M168.21,18.16c0,.5,0,.5-.45.35A1,1,0,0,1,168.21,18.16Z"/><path class="b61922fe-cbf1-47b4-bc4d-575ae87946f3" d="M115.82,72.4a.54.54,0,0,1-.49.19A.69.69,0,0,1,115.82,72.4Z"/><path class="e76eef9f-0dcb-4422-948d-f2af3657af31" d="M69.18,61.43c0-.07,0-.1.09-.12s.14-.1.18,0-.06.12-.14.14h-.1Z"/><path class="ada2599b-7ca1-49d2-85b6-4ecd189bb969" d="M129.53,66.48c0,.15-.15.15-.28.13A.29.29,0,0,1,129.53,66.48Z"/><path class="a2ece4a3-551a-4831-bb80-de34046a88e2" d="M194.58,49.09a.18.18,0,0,1,.21-.18C194.77,49,194.68,49.06,194.58,49.09Z"/><path class="a2ece4a3-551a-4831-bb80-de34046a88e2" d="M195.62,48.38c0-.12.09-.16.2-.15S195.72,48.38,195.62,48.38Z"/><path class="bb734106-d18c-4d9a-8a50-998602bd1413" d="M175.93,61.28c0-.13.1-.17.22-.17S176,61.26,175.93,61.28Z"/><path class="ada2599b-7ca1-49d2-85b6-4ecd189bb969" d="M130,66.3s-.06.07-.11,0A.09.09,0,0,1,130,66.3Z"/><path class="e76eef9f-0dcb-4422-948d-f2af3657af31" d="M84.07,53.18v0h0l0,0Z"/><path class="b3668b1b-4671-4800-b1b9-fe493b0ad31d" d="M108.34,41a.16.16,0,0,1-.16.07A.15.15,0,0,1,108.34,41Z"/><path class="aebd016d-8a60-435a-a22e-1aa662c683af" d="M68.18,88.32l.11,0A.07.07,0,0,1,68.18,88.32Z"/><path class="e26c6b0b-d4cb-4c09-9269-b978d01fa3d3" d="M95.71,96.12l.09,0C95.78,96.15,95.75,96.17,95.71,96.12Z"/><path class="aebd016d-8a60-435a-a22e-1aa662c683af" d="M62.76,99.17l.17-.07Z"/><path class="a2ece4a3-551a-4831-bb80-de34046a88e2" d="M194.81,48.85l.1-.05A.14.14,0,0,1,194.81,48.85Z"/><path class="abe63ce3-fee2-44d8-994d-c71f8e1ac3e5" d="M215.54,17c0-.25.2-.3.38-.39a.52.52,0,0,1-.39.38Z"/><path class="bb734106-d18c-4d9a-8a50-998602bd1413" d="M170.6,23.85s.08,0,.09,0,0,.06,0,.1-.08,0-.09,0S170.58,23.88,170.6,23.85Z"/></svg>