<svg xmlns="http://www.w3.org/2000/svg" viewBox="0 0 234.48 273.12"><defs><style>.ea1016f5-930c-41d8-8801-792d2675ea14{fill:#ddd;}</style></defs><title>skill-express</title><g id="a91268c0-d387-400e-9618-2208e3a12ddc" data-name="Layer 9"><path class="ea1016f5-930c-41d8-8801-792d2675ea14" d="M28.85,140.72C29.06,168.58,43.1,186,63.94,186c20.36,0,27.28-11.44,31.18-20.34h11.57c-4.57,14.4-16.15,30.91-43.19,30.91-33.27,0-46.22-28.59-46.22-56.35,0-31.31,15.55-58.13,47.52-58.13,33.73,0,44.49,29,44.49,49.7,0,3.07,0,6.12-.23,9Zm68.65-9.81c-.22-21.43-11.86-38.33-33.13-38.33-22.32,0-32.49,15.6-34.86,38.33Z"/><path class="ea1016f5-930c-41d8-8801-792d2675ea14" d="M135.59,84.68c18,26.73,25.77,38.66,30.12,45.19h.22c5.21-7.41,16-23.06,31.61-45.19h12.93l-38,52.85,38.6,56.39H197.52c-15.59-23.27-26.84-39.77-32-47.39h-.21c-4.13,6.33-13.9,21.17-31.62,47.39H120.52l38.56-55.45L122.24,84.68Z"/></g></svg>