<svg xmlns="http://www.w3.org/2000/svg" viewBox="0 0 247.99 281.25"><defs><style>.b914ccc5-e5ba-4453-a074-0828f0cc52d6{fill:#e24e26;}.a462341c-976e-4aa4-afad-733857c68cec,.b914ccc5-e5ba-4453-a074-0828f0cc52d6,.bdf8c789-0a48-40ca-a784-f5042fe20184,.bffa0c1b-ce83-4a49-a4b5-19675c66356a{fill-rule:evenodd;}.bffa0c1b-ce83-4a49-a4b5-19675c66356a{fill:#f06629;}.a462341c-976e-4aa4-afad-733857c68cec{fill:#eaeaea;}.bdf8c789-0a48-40ca-a784-f5042fe20184{fill:#fff;}</style></defs><title>skill-html</title><g id="a49f989f-a5f4-45fa-8430-69d31ed9bddd" data-name="Layer 2"><polygon class="b914ccc5-e5ba-4453-a074-0828f0cc52d6" points="247.99 0 225.4 253.1 123.85 281.25 22.57 253.14 0 0 247.99 0"/><polygon class="bffa0c1b-ce83-4a49-a4b5-19675c66356a" points="123.98 259.73 206.06 236.98 225.36 20.69 123.98 20.69 123.98 259.73"/><path class="a462341c-976e-4aa4-afad-733857c68cec" d="M80.09,82.79H124v-31H46.14l.73,8.33,7.63,85.56H124V114.58h-41L80.09,82.79Zm7,78.37H55.92l4.34,48.75,63.61,17.64.14,0v-32.3l-.14,0-34.58-9.34-2.22-24.76Z"/><path class="bdf8c789-0a48-40ca-a784-f5042fe20184" d="M123.89,145.64h38.23l-3.6,40.26-34.63,9.34v32.29l63.66-17.65.45-5.24,7.3-81.73.76-8.33H123.89v31.06Zm0-62.92v.07h75l.62-7,1.42-15.75.73-8.33H123.89v31Z"/></g></svg>