<svg xmlns="http://www.w3.org/2000/svg" viewBox="0 0 246.92 167.69"><defs><style>.edc96b14-13ff-4ddf-9ec7-0684b8dec2e7{fill:#5d86a0;}.ac659dce-dd7a-43ae-a90e-ae206d3bd7d8{fill:#f79721;}</style></defs><title>skill-mysql</title><g id="b529c8a8-7bec-4bdc-865e-848195f4f912" data-name="Layer 7"><path class="edc96b14-13ff-4ddf-9ec7-0684b8dec2e7" d="M59.36,152.77H49.84q-.51-24.12-2.79-45.37H47L32.46,152.77H25.21L10.79,107.4h-.08q-1.61,20.4-2,45.37H0q.84-30.36,4.21-56.93H16l13.75,41.83h.08L43.68,95.84H55q3.71,31.13,4.38,56.93m41.32-42q-5.82,31.58-15.35,45.89-7.41,11-16.27,11a15.83,15.83,0,0,1-5.82-1.42V161.2a28.48,28.48,0,0,0,4,.25,9.59,9.59,0,0,0,6.67-2.28,8.31,8.31,0,0,0,3-6.24c0-1.58-.79-4.8-2.36-9.69L64.08,110.77h9.36L81,135.05q2.52,8.26,2.11,11.56a158.62,158.62,0,0,0,8.6-35.85h9Z"/><path class="ac659dce-dd7a-43ae-a90e-ae206d3bd7d8" d="M227.51,152.77H200.44V95.84h9.11v49.92h18Zm-34.15,1.37L182.89,149a19.6,19.6,0,0,0,2.62-2.54q6.66-7.84,6.66-23.19Q192.17,95,170,95q-10.87,0-16.95,7.17-6.68,7.85-6.67,23.1,0,15,5.9,22,5.4,6.32,16.29,6.33a26.17,26.17,0,0,0,7.45-1l13.62,7.93Zm-33.9-12.76Q156,135.82,156,123.5q0-21.5,13.07-21.5,6.84,0,10,5.14,3.45,5.56,3.46,17.71,0,21.68-13.07,21.67-6.84,0-10-5.14m-17-4.39a15.09,15.09,0,0,1-5.31,11.89q-5.33,4.63-14.25,4.64a28.52,28.52,0,0,1-16.19-5.32l2.45-4.89a27.71,27.71,0,0,0,12.22,3.37q5.14,0,8-2.27a7.7,7.7,0,0,0,3.1-6.32c0-3.38-2.35-6.27-6.68-8.69-4-2.19-12-6.77-12-6.77-4.32-3.15-6.49-6.54-6.49-12.11a14.13,14.13,0,0,1,4.85-11.17q4.85-4.27,12.52-4.27a26,26,0,0,1,14.42,4.22l-2.2,4.89a27.9,27.9,0,0,0-11-2.36c-2.91,0-5.17.71-6.73,2.11a7.07,7.07,0,0,0-2.56,5.4c0,3.37,2.41,6.3,6.86,8.77,4,2.19,12.22,6.85,12.22,6.85,4.43,3.15,6.65,6.5,6.65,12"/><path class="edc96b14-13ff-4ddf-9ec7-0684b8dec2e7" d="M238.93,76.78c-5.5-.14-9.76.41-13.34,1.92-1,.42-2.67.42-2.82,1.72.56.55.62,1.45,1.11,2.21a16.09,16.09,0,0,0,3.57,4.19c1.45,1.1,2.89,2.2,4.41,3.16,2.67,1.65,5.71,2.62,8.31,4.27,1.52,1,3,2.2,4.55,3.23.75.55,1.23,1.44,2.2,1.79v-.21c-.49-.62-.62-1.52-1.1-2.2l-2.07-2a32.45,32.45,0,0,0-7.15-6.94c-2.2-1.52-7-3.58-7.91-6.12l-.14-.14a27.54,27.54,0,0,0,4.75-1.11c2.34-.61,4.47-.47,6.87-1.09,1.11-.28,2.2-.62,3.31-1v-.62c-1.24-1.24-2.13-2.89-3.44-4.06a91.17,91.17,0,0,0-11.35-8.46c-2.13-1.38-4.88-2.27-7.16-3.44-.81-.41-2.2-.62-2.68-1.31A27.82,27.82,0,0,1,216,55.32c-2-3.78-3.92-8-5.64-12-1.24-2.68-2-5.36-3.5-7.84C199.8,23.82,192.1,16.74,180.27,9.79c-2.54-1.45-5.57-2.07-8.8-2.83l-5.16-.27c-1.1-.48-2.2-1.79-3.17-2.41-3.92-2.47-14-7.84-16.91-.75C144.37,8,149,12.4,150.56,14.67a31.24,31.24,0,0,1,3.5,5.16c.49,1.17.62,2.41,1.11,3.65a83.61,83.61,0,0,0,3.57,9.21A32.64,32.64,0,0,0,161.29,37c.55.76,1.51,1.1,1.72,2.34-1,1.37-1,3.44-1.58,5.16-2.48,7.77-1.51,17.4,2,23.11,1.1,1.72,3.72,5.5,7.22,4,3.1-1.23,2.42-5.15,3.31-8.59.2-.83.07-1.38.48-1.92v.13c1,1.93,1.93,3.78,2.82,5.71a38.93,38.93,0,0,0,8.94,9.21c1.65,1.24,2.95,3.37,5,4.13v-.2h-.14a7.72,7.72,0,0,0-1.58-1.38,32.72,32.72,0,0,1-3.57-4.12,88,88,0,0,1-7.7-12.52c-1.11-2.14-2.07-4.47-3-6.6-.42-.83-.42-2.07-1.11-2.48-1,1.51-2.54,2.82-3.29,4.67-1.31,3-1.45,6.61-1.94,10.39l-.27.14c-2.19-.55-3-2.82-3.78-4.74-2.06-4.89-2.41-12.73-.62-18.37.48-1.44,2.55-6,1.72-7.36-.41-1.31-1.79-2.06-2.54-3.1a27.59,27.59,0,0,1-2.48-4.4c-1.65-3.85-2.48-8.11-4.26-12a36.89,36.89,0,0,0-3.44-5.3c-1.31-1.86-2.75-3.16-3.79-5.36-.34-.76-.82-2-.27-2.82a1.12,1.12,0,0,1,1-.9c.9-.75,3.44.21,4.33.62a34.21,34.21,0,0,1,6.81,3.44c1,.69,2,2,3.24,2.34H166c2.2.48,4.68.13,6.74.75a44.32,44.32,0,0,1,9.91,4.75,61,61,0,0,1,21.45,23.52c.82,1.58,1.17,3,1.92,4.68,1.45,3.37,3.24,6.81,4.68,10.11s2.82,6.53,4.89,9.21c1,1.45,5.16,2.2,7,3,1.37.62,3.5,1.17,4.74,1.92,2.34,1.44,4.67,3.1,6.87,4.69,1.1.82,4.54,2.54,4.74,3.92M168.78,17a10.73,10.73,0,0,0-2.82.34v.14h.14a21.74,21.74,0,0,0,2.2,2.82c.55,1.11,1,2.2,1.58,3.3l.13-.14A3.85,3.85,0,0,0,171.46,20c-.41-.48-.48-1-.83-1.44-.4-.69-1.3-1-1.85-1.58"/><path class="ac659dce-dd7a-43ae-a90e-ae206d3bd7d8" d="M245.49,152.76h1.42v-7h-2.14L243,150.54l-1.9-4.76h-2v7h1.34v-5.31h.08l2,5.31h1l2-5.31v5.31Zm-11.48,0h1.5V147h2v-1.19H232V147H234v5.79Z"/></g></svg>