<svg xmlns="http://www.w3.org/2000/svg" viewBox="0 0 247.99 281.25"><defs><style>.f3e5e6ae-1824-4181-8b66-b4b795cca6b6{fill:#679e63;fill-rule:evenodd;}</style></defs><title>skill-node</title><g id="f69c4c86-4a7d-4786-a4c3-429ae1c38221" data-name="Layer 5"><path class="f3e5e6ae-1824-4181-8b66-b4b795cca6b6" d="M155.45,199.24c-44.76,0-54.14-20.53-54.14-37.78a3,3,0,0,1,3-3h13.22a2.94,2.94,0,0,1,2.9,2.5c2,13.47,7.93,20.26,35,20.26,21.56,0,30.71-4.86,30.71-16.31,0-6.58-2.61-11.47-36.09-14.74-28-2.77-45.32-8.93-45.32-31.35C104.7,98.25,122.1,86,151.27,86c32.75,0,49,11.35,51,35.8a3,3,0,0,1-.8,2.27,3.06,3.06,0,0,1-2.18,1H186a2.92,2.92,0,0,1-2.86-2.29c-3.2-14.15-10.93-18.7-32-18.7-23.53,0-26.26,8.2-26.26,14.34,0,7.45,3.23,9.63,35,13.83,31.44,4.18,46.37,10.06,46.37,32.17,0,22.28-18.59,35-51,35l.14-.14Zm-31.6,81.32a21.41,21.41,0,0,1-10.72-2.86L79,257.48c-5.11-2.86-2.61-3.86-.93-4.45a69,69,0,0,0,15.45-7,2.63,2.63,0,0,1,2.54.18l26.24,15.56a3.44,3.44,0,0,0,3.18,0l102.29-59a3.22,3.22,0,0,0,1.57-2.77v-118a3.27,3.27,0,0,0-1.59-2.81l-102.27-59a3.18,3.18,0,0,0-3.16,0L20.08,79.1a3.21,3.21,0,0,0-1.61,2.79v118a3.14,3.14,0,0,0,1.59,2.75l28,16.17c15.19,7.61,24.51-1.36,24.51-10.35V92a2.92,2.92,0,0,1,3-3h13a2.94,2.94,0,0,1,3,3V208.53c0,20.29-11.06,31.92-30.28,31.92-5.9,0-10.58,0-23.58-6.41L10.72,218.57A21.59,21.59,0,0,1,0,199.92v-118A21.51,21.51,0,0,1,10.72,63.24L113.1,4.18a22.44,22.44,0,0,1,21.51,0L236.88,63.26A21.56,21.56,0,0,1,247.6,81.91V200a21.66,21.66,0,0,1-10.72,18.64L134.61,277.66a21.6,21.6,0,0,1-10.76,2.86v0Zm0,0Z"/></g></svg>