<svg xmlns="http://www.w3.org/2000/svg" viewBox="0 0 247.36 125.35"><defs><style>.a4cb60a9-d7c3-48cc-b35a-d17548a4af10{fill:#6884b9;}.a4cb60a9-d7c3-48cc-b35a-d17548a4af10,.aa41f0df-6067-4b4f-8949-ef3c7daf3625,.b25e5421-df1b-47bd-829a-fc74c875960a{fill-rule:evenodd;}.b25e5421-df1b-47bd-829a-fc74c875960a{fill:#fff;}</style></defs><title>skill-php</title><g id="e7705a7f-bffe-454f-9bab-e8c528174cda" data-name="Layer 6"><path class="a4cb60a9-d7c3-48cc-b35a-d17548a4af10" d="M123.68,125.35c68.3,0,123.68-28.06,123.68-62.68S192,0,123.68,0,0,28.06,0,62.69s55.38,62.66,123.68,62.66Zm65.3-75q-1.41-1.58-7.5-1.57h-6.14l-3.61,18.5h3.53a26.21,26.21,0,0,0,6.32-.67,10,10,0,0,0,3.68-1.63,8.3,8.3,0,0,0,2.32-2.9,19.61,19.61,0,0,0,1.71-5.19,15.44,15.44,0,0,0,.32-4.79,3,3,0,0,0-.63-1.75Zm-79.15-36.5h13.71a4,4,0,0,1,4,4,4.15,4.15,0,0,1-.12,1l-2.3,11.82h7.33a44.3,44.3,0,0,1,10.71,1.13,18,18,0,0,1,7.91,4,13,13,0,0,1,3.64,5.8l1.43-7.39a4,4,0,0,1,4-3.5h26.57a34.26,34.26,0,0,1,11.72,1.83,20.87,20.87,0,0,1,8.79,5.86,19.53,19.53,0,0,1,4.51,9.44,30.42,30.42,0,0,1-.26,11.51,36.77,36.77,0,0,1-1.39,5.06A30.58,30.58,0,0,1,208,69a31.76,31.76,0,0,1-2.84,4.22A34.43,34.43,0,0,1,201.59,77h0a29.09,29.09,0,0,1-5,3.8,27.44,27.44,0,0,1-5.63,2.58,34.81,34.81,0,0,1-6.49,1.39,61.52,61.52,0,0,1-7.64.46h-8.52l-2.66,13.37a4,4,0,0,1-4,3.5H147.84a3.48,3.48,0,0,1-.77-.08,4,4,0,0,1-3.2-4.71l2.38-12.22a4.23,4.23,0,0,1-1,.12H131.31a4,4,0,0,1-4-4,3.73,3.73,0,0,1,.13-1l5.39-27.8a9.87,9.87,0,0,0,.24-2.86c0-.2.14-.1.08-.18l-.56-.14a14.77,14.77,0,0,0-3.38-.3h-7.65L115.15,82a4,4,0,0,1-4,3.26H97.49a4,4,0,0,1-4-4,4.17,4.17,0,0,1,.12-1l.72-3.76-.6.56h0a28.72,28.72,0,0,1-5,3.8,27.44,27.44,0,0,1-5.63,2.58,34.69,34.69,0,0,1-6.48,1.39,61.8,61.8,0,0,1-7.65.46H60.39l-2.6,13.37a4,4,0,0,1-4,3.5H40a3.54,3.54,0,0,1-.77-.08A4,4,0,0,1,36,97.35L48.31,34.16a4,4,0,0,1,4-3.5H78.87a34.26,34.26,0,0,1,11.72,1.83,20.75,20.75,0,0,1,8.79,5.86,21,21,0,0,1,1.88,2.51l4.63-23.77a4,4,0,0,1,3.94-3.28ZM81.17,50.31q-1.42-1.58-7.51-1.57H67.5l-3.61,18.5h3.53a26.16,26.16,0,0,0,6.32-.67,9.88,9.88,0,0,0,3.68-1.63A8.3,8.3,0,0,0,79.74,62a19.61,19.61,0,0,0,1.71-5.19,15.44,15.44,0,0,0,.32-4.79,3.26,3.26,0,0,0-.6-1.75Z"/><path class="aa41f0df-6067-4b4f-8949-ef3c7daf3625" d="M181.48,44.71q7.88,0,10.48,2.9t1.25,10c-.94,4.91-2.8,8.42-5.51,10.51s-6.89,3.14-12.44,3.14h-8.4L172,44.69h9.47ZM109.83,17.84h13.71L120.26,34.7h12.22q11.53,0,15.9,4t2.62,13l-5.74,29.51H131.33l5.46-28.07c.62-3.2.38-5.37-.69-6.52s-3.36-1.75-6.88-1.75h-11L111.2,81.27H97.49l12.34-63.43ZM73.66,44.71q7.88,0,10.49,2.9t1.24,10C84.45,62.5,82.6,66,79.88,68.1S73,71.24,67.44,71.24H59L64.2,44.69h9.46ZM40,98.12H53.81l3.28-16.87H68.93A42.23,42.23,0,0,0,81.81,79.6,24.32,24.32,0,0,0,91,74.08a28.15,28.15,0,0,0,5.62-7,28.51,28.51,0,0,0,3.06-8.49Q101.9,47.28,96.38,41c-3.66-4.19-9.5-6.31-17.49-6.31H52.32L40,98.12Zm107.82,0h13.81l3.28-16.87h11.83a42.25,42.25,0,0,0,12.89-1.65,24.32,24.32,0,0,0,9.2-5.52,27.88,27.88,0,0,0,5.61-7,28.24,28.24,0,0,0,3.06-8.49q2.2-11.26-3.3-17.57c-3.66-4.19-9.5-6.31-17.49-6.31H160.14L147.82,98.12Z"/><path class="b25e5421-df1b-47bd-829a-fc74c875960a" d="M73.66,44.71v0H64.2L59,71.24h8.4c5.55,0,9.72-1,12.44-3.14s4.57-5.6,5.51-10.51q1.39-7.1-1.24-10T73.66,44.71Zm7.79,12.14A19.61,19.61,0,0,1,79.74,62a8.3,8.3,0,0,1-2.32,2.9,9.88,9.88,0,0,1-3.68,1.63,26.16,26.16,0,0,1-6.32.67H63.89l3.61-18.5h6.16q6.09,0,7.51,1.57a3.26,3.26,0,0,1,.6,1.75A15.44,15.44,0,0,1,81.45,56.85Z"/><path class="b25e5421-df1b-47bd-829a-fc74c875960a" d="M181.48,44.71v0H172l-5.15,26.55h8.4c5.55,0,9.72-1,12.44-3.14s4.57-5.6,5.51-10.51q1.36-7.1-1.25-10T181.48,44.71Zm7.81,12.14A19.61,19.61,0,0,1,187.58,62a8.3,8.3,0,0,1-2.32,2.9,10,10,0,0,1-3.68,1.63,26.21,26.21,0,0,1-6.32.67h-3.53l3.61-18.5h6.14q6.09,0,7.5,1.57a3,3,0,0,1,.63,1.75A15.44,15.44,0,0,1,189.29,56.85Z"/><path class="b25e5421-df1b-47bd-829a-fc74c875960a" d="M207.24,38.35a20.87,20.87,0,0,0-8.79-5.86,34.26,34.26,0,0,0-11.72-1.83H160.16a4,4,0,0,0-4,3.5l-1.43,7.39a13,13,0,0,0-3.64-5.8,18,18,0,0,0-7.91-4,44.3,44.3,0,0,0-10.71-1.13h-7.33l2.3-11.82a4.15,4.15,0,0,0,.12-1,4,4,0,0,0-4-4H109.83a4,4,0,0,0-3.94,3.28l-4.63,23.77a21,21,0,0,0-1.88-2.51,20.75,20.75,0,0,0-8.79-5.86,34.26,34.26,0,0,0-11.72-1.83H52.3a4,4,0,0,0-4,3.5L36,97.35a4,4,0,0,0,3.2,4.71,3.54,3.54,0,0,0,.77.08H53.81a4,4,0,0,0,4-3.5l2.6-13.37h8.54a61.8,61.8,0,0,0,7.65-.46,34.69,34.69,0,0,0,6.48-1.39,27.44,27.44,0,0,0,5.63-2.58,28.72,28.72,0,0,0,5-3.8l.6-.56-.72,3.76a4.17,4.17,0,0,0-.12,1,4,4,0,0,0,4,4H111.2a4,4,0,0,0,4-3.26l6.38-33.07h7.65a14.77,14.77,0,0,1,3.38.3l.56.14c.06.08-.1,0-.08.18a9.87,9.87,0,0,1-.24,2.86l-5.39,27.8a3.73,3.73,0,0,0-.13,1,4,4,0,0,0,4,4h13.93a4.23,4.23,0,0,0,1-.12l-2.38,12.22a4,4,0,0,0,3.2,4.71,3.48,3.48,0,0,0,.77.08h13.81a4,4,0,0,0,4-3.5l2.66-13.37h8.52a61.52,61.52,0,0,0,7.64-.46,34.81,34.81,0,0,0,6.49-1.39,27.44,27.44,0,0,0,5.63-2.58,29.09,29.09,0,0,0,5-3.8,34.43,34.43,0,0,0,3.56-3.81A31.76,31.76,0,0,0,208,69a30.58,30.58,0,0,0,2.11-4.65,36.77,36.77,0,0,0,1.39-5.06,30.42,30.42,0,0,0,.26-11.51A19.53,19.53,0,0,0,207.24,38.35ZM96.63,67a28.15,28.15,0,0,1-5.62,7,24.32,24.32,0,0,1-9.2,5.52,42.23,42.23,0,0,1-12.88,1.65H57.09L53.81,98.12H40L52.32,34.66H78.89c8,0,13.83,2.12,17.49,6.31S101.16,51,99.69,58.54A28.51,28.51,0,0,1,96.63,67Zm48.63,14.24H131.33l5.46-28.07c.62-3.2.38-5.37-.69-6.52s-3.36-1.75-6.88-1.75h-11L111.2,81.27H97.49l12.34-63.43h13.71L120.26,34.7h12.22q11.53,0,15.9,4t2.62,13ZM207.5,58.54A28.24,28.24,0,0,1,204.44,67a27.88,27.88,0,0,1-5.61,7,24.32,24.32,0,0,1-9.2,5.52,42.25,42.25,0,0,1-12.89,1.65H164.91l-3.28,16.87H147.82l12.32-63.46h26.57c8,0,13.83,2.12,17.49,6.31S209,51,207.5,58.54Z"/></g></svg>