<svg id="f33b31d0-dfcf-40a7-a7c4-cf5917baa722" data-name="Layer 12" xmlns="http://www.w3.org/2000/svg" xmlns:xlink="http://www.w3.org/1999/xlink" viewBox="0 0 233.82 180.31"><defs><style>.aefd2905-ccff-4c53-be83-8427bef26fdc,.e158de92-8694-45ac-82af-f59d5785171d{fill-rule:evenodd;}.aefd2905-ccff-4c53-be83-8427bef26fdc{fill:url(#ea177c89-c2e2-4b82-849b-e9f440ac8741);}.e158de92-8694-45ac-82af-f59d5785171d{fill:url(#f2a11ba3-ff8a-4777-8b83-298824d23fe4);}</style><linearGradient id="ea177c89-c2e2-4b82-849b-e9f440ac8741" x1="-365.38" y1="-124.27" x2="-365.05" y2="-124.59" gradientTransform="matrix(721.09, 0, 0, -482.94, 263472.59, -60012.3)" gradientUnits="userSpaceOnUse"><stop offset="0" stop-color="#cbced0"/><stop offset="1" stop-color="#84838b"/></linearGradient><linearGradient id="f2a11ba3-ff8a-4777-8b83-298824d23fe4" x1="-365.49" y1="-124.18" x2="-365.17" y2="-124.51" gradientTransform="matrix(398, 0, 0, -406.12, 145554.4, -50376.11)" gradientUnits="userSpaceOnUse"><stop offset="0" stop-color="#276dc3"/><stop offset="1" stop-color="#165caa"/></linearGradient></defs><title>Artboard 12</title><path class="aefd2905-ccff-4c53-be83-8427bef26fdc" d="M116.91,156.6C52.34,156.6,0,121.54,0,78.3S52.34,0,116.91,0,233.82,35.06,233.82,78.3,181.48,156.6,116.91,156.6Zm17.89-126c-49.07,0-88.86,24-88.86,53.53s39.79,53.53,88.86,53.53,85.3-16.39,85.3-53.53S183.88,30.61,134.8,30.61Z"/><path class="e158de92-8694-45ac-82af-f59d5785171d" d="M178.05,121.27a88.4,88.4,0,0,1,11.18,4.22,21.56,21.56,0,0,1,5.68,4,15.31,15.31,0,0,1,2.59,3.73l27.89,47-45.07,0-21.08-39.58s-4.32-7.42-7-9.57c-2.22-1.79-3.16-2.43-5.35-2.43H136.21v51.55l-39.89,0V48.62h80.1s36.48.66,36.48,35.36S178.05,121.27,178.05,121.27ZM160.7,77.18H136.55V99.56H160.7s11.19,0,11.19-11.39C171.89,76.57,160.7,77.18,160.7,77.18Z"/></svg>