<svg xmlns="http://www.w3.org/2000/svg" viewBox="0 0 249.98 222.62"><defs><style>.eda34611-0fc8-43bb-ab50-522eacc0490f{fill:#4cc7ec;fill-rule:evenodd;}</style></defs><title>skill-react</title><g id="b0de4751-b250-429b-af9a-a2652d8c0920" data-name="Layer 3"><path class="eda34611-0fc8-43bb-ab50-522eacc0490f" d="M250,111.34c0-16.56-20.73-32.24-52.52-42,7.34-32.41,4.07-58.18-10.3-66.44A22.38,22.38,0,0,0,175.75.06V11.43a12,12,0,0,1,5.82,1.33c6.94,4,9.93,19.1,7.59,38.57-.57,4.78-1.49,9.82-2.61,15a247.7,247.7,0,0,0-32.34-5.55A248.79,248.79,0,0,0,133,35.28c16.6-15.47,32.18-23.91,42.78-23.91V0h0c-14,0-32.35,10-50.9,27.32C106.34,10.09,88,.2,74,.2V11.58c10.54,0,26.18,8.4,42.8,23.74a236.68,236.68,0,0,0-21,25.43,240.17,240.17,0,0,0-32.41,5.59,149.72,149.72,0,0,1-2.64-14.77c-2.4-19.47.57-34.6,7.44-38.63A11.33,11.33,0,0,1,74,11.62V.26h0A22.75,22.75,0,0,0,62.5,3.11c-14.33,8.26-17.54,34-10.13,66.3C20.63,79.18,0,94.82,0,111.34s20.73,32.25,52.53,42c-7.35,32.41-4.07,58.18,10.29,66.44a22.39,22.39,0,0,0,11.48,2.85c14,0,32.34-10,50.9-27.32,18.55,17.23,36.88,27.12,50.9,27.12a22.78,22.78,0,0,0,11.51-2.85c14.32-8.26,17.54-34,10.13-66.3,31.62-9.72,52.24-25.43,52.24-41.93Zm-101.75,0a23.3,23.3,0,1,0-23.3,23.3,23.29,23.29,0,0,0,23.3-23.3ZM73.93.2ZM183.64,77.35c-1.89,6.57-4.23,13.34-6.87,20.12-2.1-4.07-4.27-8.16-6.68-12.23s-4.84-8.06-7.34-11.92c7.24,1.08,14.22,2.4,20.89,4Zm-23.33,54.27c-4,6.88-8.06,13.41-12.29,19.47q-11.39,1-23,1c-7.69,0-15.38-.37-22.92-1-4.24-6.06-8.37-12.53-12.33-19.36s-7.39-13.45-10.6-20.29c3.15-6.83,6.73-13.65,10.54-20.32,4-6.88,8-13.41,12.28-19.47q11.39-1,23-1c7.69,0,15.38.37,22.93,1,4.23,6.06,8.36,12.53,12.33,19.37,3.86,6.67,7.38,13.45,10.6,20.28-3.22,6.82-6.72,13.63-10.54,20.32ZM176.77,125c2.74,6.84,5.08,13.65,7,20.29-6.68,1.62-13.72,3-21,4.06,2.5-3.92,5-8,7.35-12.08s4.51-8.2,6.61-12.27Zm-51.68,54.36a206,206,0,0,1-14.16-16.29c4.58.2,9.28.36,14,.36s9.52-.1,14.16-.36a201.24,201.24,0,0,1-14,16.29Zm-37.9-30c-7.24-1.07-14.22-2.4-20.89-4,1.89-6.58,4.23-13.35,6.88-20.12,2.09,4.06,4.27,8.15,6.67,12.22s4.84,8.06,7.34,11.92Zm37.64-106A206.21,206.21,0,0,1,139,59.61c-4.58-.21-9.28-.37-14-.37s-9.52.1-14.16.37a201.44,201.44,0,0,1,14-16.3Zm-37.7,30c-2.5,3.93-5,8-7.34,12.08s-4.54,8.16-6.63,12.23c-2.75-6.84-5.09-13.65-7-20.28,6.69-1.59,13.73-2.95,21-4ZM41,137.12c-18-7.69-29.7-17.78-29.7-25.78S23,93.2,41,85.57c4.38-1.9,9.18-3.56,14.12-5.15a244.73,244.73,0,0,0,11.48,31,241.48,241.48,0,0,0-11.32,30.89c-5-1.59-9.84-3.32-14.28-5.21Zm27.43,72.81c-6.94-4-9.93-19.1-7.59-38.57.57-4.78,1.48-9.83,2.6-15a247.82,247.82,0,0,0,32.35,5.56A249.88,249.88,0,0,0,117,187.41c-16.62,15.44-32.21,23.9-42.81,23.9a12.17,12.17,0,0,1-5.75-1.38ZM189.3,171.11c2.4,19.47-.57,34.61-7.45,38.63a11.3,11.3,0,0,1-5.86,1.33c-10.53,0-26.18-8.4-42.8-23.74a238.91,238.91,0,0,0,21-25.43,236.81,236.81,0,0,0,32.4-5.62,143.43,143.43,0,0,1,2.67,14.83Zm19.61-34c-4.37,1.89-9.17,3.56-14.12,5.14a245.19,245.19,0,0,0-11.47-31,241.25,241.25,0,0,0,11.31-30.88c5,1.58,9.83,3.31,14.32,5.19,18.05,7.69,29.7,17.78,29.7,25.77s-11.69,18.15-29.74,25.8Z"/></g></svg>