<svg id="fb854228-96d8-49c8-9bca-5ae065efbfa3" data-name="Layer 14" xmlns="http://www.w3.org/2000/svg" viewBox="0 0 162.21 170.07"><defs><style>.b4f1b512-1131-49f1-93a5-d03d6806942b{fill:#03aaea;}.e9772cc5-51d9-4f31-8e78-ba63cddf78da{fill:#0581b1;}.ae5f0420-4d8a-4287-9a65-4098f695254e{fill:#0380b0;}.a0627c22-fac2-4692-895b-a05470d2a8bb{fill:#00a9ea;}.a8d0bb5d-e3a3-41f5-8757-bbcc31e86ca8{font-size:54px;fill:#fff;font-family:Calibri-Bold, Calibri;font-weight:700;}</style></defs><title>sql</title><path class="b4f1b512-1131-49f1-93a5-d03d6806942b" d="M148.32,147.32c2.15,0,4.29-.06,6.29,1a13.23,13.23,0,0,1,3.58,3.12l.24.28v-.05a14.86,14.86,0,0,1,1.49,6.11,9.94,9.94,0,0,1-9.68,9.88c-4.19.23-8.39.19-12.59.23-3.21,0-6.43-.14-9.64-.14-8.74,0-17.49-.12-26.24.1-8.18.21-16.37.07-24.55-.13a21.92,21.92,0,0,1-10.88-2.95c-.4-.24-.74-.68-1.3-.6h0c0-.23-.21-.25-.4-.26h0l-.22-.22h0l-.2-.23c-5.18-4.33-8.06-9.82-8-16.62a20.45,20.45,0,0,1,16-19.69,31.63,31.63,0,0,1,3.61-.61,8.33,8.33,0,0,1,3.92.41c3.72,1.39,5.85.57,7.68-3a43.45,43.45,0,0,1,3.82-6.74,29.88,29.88,0,0,1,21.11-12c10-1.14,18.57,2.18,25.75,9.19.77.75,1.52,1.54,2.28,2.31l.23.28v0l.22.22h0c0,.2,0,.39.29.38h0c.11,1,.89,1.67,1.39,2.47a30.76,30.76,0,0,1,4.55,16.17,31.47,31.47,0,0,1-1,7.94C145.66,146.29,146.21,147.06,148.32,147.32Z"/><path class="e9772cc5-51d9-4f31-8e78-ba63cddf78da" d="M7.88,140.71c.27-.13.46,0,.67.17,7.42,4.62,15.57,7.28,24.09,9,4.13.84,8.31,1.29,12.48,1.87h.2c2.65,0,3.19.31,3.23-3,.07-6,1.26-11.85,4.52-17.07a25.62,25.62,0,0,1,11.62-10A30.51,30.51,0,0,1,77.27,119,6,6,0,0,0,83,115.71a35.33,35.33,0,0,1,6.66-8.17,36.71,36.71,0,0,1,17.74-9.14c1.56-.34,3.16-.52,4.72-.86a3,3,0,0,0,2.56-3.23c0-15.71.06-31.43-.06-47.15,0-3.28-.21-6.57-.09-9.84s.09-6.42.31-9.62a16.75,16.75,0,0,0-2.35-10.14c-.15-.24-.38-.43-.28-.76A14.35,14.35,0,0,1,116.8,25c.58,2.63.3,5.29.2,7.94-.34,8.68,0,17.35,0,26,0,11.41,0,22.83,0,34.24,0,1.09,0,2.17,0,3.26-.08,2-.88,3-2.88,3.41s-4.07.65-6.07,1.17a37.09,37.09,0,0,0-22.91,17.15,5.84,5.84,0,0,1-5.34,3c-6.87.16-13.27,1.94-18.72,6.34s-8.39,10.16-9.64,16.93a62.86,62.86,0,0,0-.59,7.74c-.08,1.42-.62,2-2.05,1.89-3.77-.27-7.51-.82-11.23-1.46a80.13,80.13,0,0,1-20.91-6.3,35.43,35.43,0,0,1-8.23-5C8.23,141.13,8,141,7.88,140.71Z"/><path class="ae5f0420-4d8a-4287-9a65-4098f695254e" d="M65,164.2c.56-.08.9.36,1.3.6a21.92,21.92,0,0,0,10.88,2.95c8.18.2,16.37.34,24.55.13,8.75-.22,17.5-.11,26.24-.1,3.21,0,6.43.17,9.64.14,4.2,0,8.4,0,12.59-.23a9.94,9.94,0,0,0,9.68-9.88,14.86,14.86,0,0,0-1.49-6.11,9.23,9.23,0,0,1,3.72,6.77A10.1,10.1,0,0,1,151.78,170c-8.37.06-16.73,0-25.1,0q-21.21,0-42.43,0c-3.24,0-6.51.16-9.71-.64a21.25,21.25,0,0,1-9.12-4.74A3.65,3.65,0,0,1,65,164.2Z"/><path class="e9772cc5-51d9-4f31-8e78-ba63cddf78da" d="M148.32,147.32c-2.11-.26-2.66-1-2.15-3.09a31.47,31.47,0,0,0,1-7.94,30.76,30.76,0,0,0-4.55-16.17c-.5-.8-1.28-1.46-1.39-2.47a24.61,24.61,0,0,1,5.14,7.43,31,31,0,0,1,2,21.52A5.93,5.93,0,0,0,148.32,147.32Z"/><path class="e9772cc5-51d9-4f31-8e78-ba63cddf78da" d="M96.15,17.57a82.12,82.12,0,0,0-11.63-4.06A95.63,95.63,0,0,0,63.34,11a137.45,137.45,0,0,0-19.67.86,68.84,68.84,0,0,0-19.9,5.57c-2.51,1.12-4.32,2.85-4.22,5.89a7.06,7.06,0,0,0,.68,2.62,5.7,5.7,0,0,1-.3-9.86,27.42,27.42,0,0,1,5.52-2.5,62.19,62.19,0,0,1,13-3.53c2.71-.46,5.45-.71,8.19-.95A136.75,136.75,0,0,1,61.9,8.71,108.56,108.56,0,0,1,75,9.85a73.5,73.5,0,0,1,16.49,4.5,13.15,13.15,0,0,1,4.08,2.29A1.43,1.43,0,0,1,96.15,17.57Z"/><path class="a0627c22-fac2-4692-895b-a05470d2a8bb" d="M114.85,27.7a16.75,16.75,0,0,0-2.35-10.14c-.14-.23-.36-.42-.28-.72a.25.25,0,0,1-.22-.22.53.53,0,0,1-.44-.47,21,21,0,0,0-4.54-4A59.24,59.24,0,0,0,96.13,6.54C81.72,1.14,66.79-.6,51.5.17a131.76,131.76,0,0,0-23.16,3A61.26,61.26,0,0,0,7.73,11.74,16,16,0,0,0,.47,22a40.1,40.1,0,0,0-.33,8.48c.09,9.1.2,18.2.21,27.3C.37,74.88.43,92,.22,109.12.16,113.7.3,118.3,0,122.87c-.38,7,1.67,12.87,7.26,17.32l.23.22c.19,0,.37,0,.38.29h0c.27-.13.46,0,.67.17,7.42,4.62,15.57,7.28,24.09,9,4.13.84,8.31,1.29,12.48,1.87h.21c2.64,0,3.18.31,3.22-3,.07-6,1.26-11.85,4.52-17.07a25.62,25.62,0,0,1,11.62-10A30.51,30.51,0,0,1,77.27,119,6,6,0,0,0,83,115.71a35.33,35.33,0,0,1,6.66-8.17,36.71,36.71,0,0,1,17.74-9.14c1.56-.34,3.16-.52,4.72-.86a3,3,0,0,0,2.56-3.23c0-15.71.06-31.43-.06-47.15,0-3.28-.21-6.57-.09-9.84S114.63,30.9,114.85,27.7ZM95.93,24.78a12.3,12.3,0,0,1-5.34,3,108.26,108.26,0,0,1-28.76,5.31,104.75,104.75,0,0,1-38.16-5.48,9.36,9.36,0,0,1-3.44-1.72,5.7,5.7,0,0,1-.3-9.86,27.42,27.42,0,0,1,5.52-2.5,62.19,62.19,0,0,1,13-3.53c2.71-.46,5.45-.71,8.19-.95A136.75,136.75,0,0,1,61.9,8.71,108.56,108.56,0,0,1,75,9.85a73.5,73.5,0,0,1,16.49,4.5,13.15,13.15,0,0,1,4.08,2.29,1.43,1.43,0,0,1,.59.93v-.05l.25.26A5.45,5.45,0,0,1,95.93,24.78Z"/><text class="a8d0bb5d-e3a3-41f5-8757-bbcc31e86ca8" transform="translate(12.6 96.34)">SQL</text></svg>